<svg width="100" height="80" viewBox="0 0 100 80" fill="none" xmlns="http://www.w3.org/2000/svg">
<path d="M25 76.522H1.6666C0.744922 76.522 0 77.3011 0 78.261C0 79.2209 0.744922 80 1.6666 80H25C25.9217 80 26.6666 79.2209 26.6666 78.261C26.6666 77.3011 25.9217 76.522 25 76.522Z" fill="#D4C17F"/>
<path d="M20 73.0403C31.0283 73.0403 39.9999 63.6771 39.9999 52.1715C39.9999 46.4099 37.7982 41.045 33.7999 37.0642C33.1367 36.4033 32.0783 36.4294 31.4433 37.1217C30.8083 37.8172 30.8333 38.9182 31.4984 39.5807C34.83 42.8989 36.6667 47.3682 36.6667 52.1715C36.6667 61.7608 29.19 69.5621 20.0001 69.5621C10.8103 69.5621 3.33355 61.7606 3.33355 52.1715C3.33355 42.5806 10.8103 34.7809 20.0001 34.7809C20.9218 34.7809 21.6667 34.0017 21.6667 33.0419C21.6667 32.0801 20.9218 31.3029 20.0001 31.3029C8.97183 31.3029 0.000152591 40.6643 0.000152591 52.1717C-4.27214e-05 63.6771 8.97163 73.0403 20 73.0403Z" fill="#D4C17F"/>
<path d="M28.3334 24.3462H29.1783L19.55 48.7402C17.9268 48.9715 16.6666 50.4131 16.6666 52.1713C16.6666 54.0894 18.1615 55.6495 20 55.6495C21.8383 55.6495 23.3334 54.0896 23.3334 52.1713C23.3334 51.3749 23.0668 50.6514 22.6334 50.0636L32.0385 26.2348L42.5869 42.2152C43.1068 43.0065 44.142 43.2081 44.9035 42.6621C45.6635 42.1161 45.8535 41.0344 45.3303 40.243L34.8369 24.3462H38.3336C41.0902 24.3462 43.3336 22.0054 43.3336 19.129C43.3336 16.2508 41.0902 13.9118 38.3336 13.9118H28.3336C27.4119 13.9118 26.667 14.6891 26.667 15.6508V22.607C26.6666 23.5673 27.4117 24.3462 28.3334 24.3462ZM30 17.39H38.3334C39.2533 17.39 40 18.1691 40 19.129C40 20.0873 39.2533 20.868 38.3334 20.868H30V17.39Z" fill="#D4C17F"/>
<path d="M78.3334 33.0417C78.3334 34.0015 79.0783 34.7807 80 34.7807C89.19 34.7807 96.6666 42.5804 96.6666 52.1713C96.6666 61.7606 89.1898 69.5619 80 69.5619C70.8102 69.5619 63.3334 61.7603 63.3334 52.1713C63.3334 46.9594 65.5451 42.0672 69.4051 38.7457C70.1135 38.1354 70.215 37.0398 69.6283 36.299C69.0434 35.5598 67.9949 35.4503 67.2816 36.0625C62.6549 40.0468 60 45.9161 60 52.1715C60 63.6771 68.9717 73.0403 80 73.0403C91.0283 73.0403 100 63.6771 100 52.1715C100 40.6641 91.0283 31.3027 80 31.3027C79.0783 31.3027 78.3334 32.0799 78.3334 33.0417Z" fill="#D4C17F"/>
<path d="M51.6666 76.522H35C34.0783 76.522 33.3334 77.3011 33.3334 78.261C33.3334 79.2209 34.0783 80 35 80H51.6666C52.5883 80 53.3332 79.2209 53.3332 78.261C53.3334 77.3011 52.5883 76.522 51.6666 76.522Z" fill="#D4C17F"/>
<path d="M51.6666 43.7231V38.2589C52.5883 38.2589 53.3332 37.4798 53.3332 36.5199C53.3332 35.5582 52.5883 34.7809 51.6666 34.7809H48.3332C47.4115 34.7809 46.6666 35.5582 46.6666 36.5199C46.6666 37.4798 47.4115 38.2589 48.3332 38.2589V43.7231C45.4648 44.5004 43.3332 47.1995 43.3332 50.4325C43.3332 53.6637 45.4648 56.3628 48.3332 57.1419V62.6061C47.4115 62.6061 46.6666 63.3834 46.6666 64.3451C46.6666 65.305 47.4115 66.0841 48.3332 66.0841H51.6666C52.5883 66.0841 53.3332 65.305 53.3332 64.3451C53.3332 63.3834 52.5883 62.6061 51.6666 62.6061V57.1419C54.535 56.3628 56.6666 53.6637 56.6666 50.4325C56.6666 47.1995 54.535 44.5004 51.6666 43.7231ZM50 53.9105C48.1633 53.9105 46.6666 52.3506 46.6666 50.4323C46.6666 48.5142 48.1633 46.9541 50 46.9541C51.8383 46.9541 53.3334 48.514 53.3334 50.4323C53.3334 52.3506 51.8383 53.9105 50 53.9105Z" fill="#D4C17F"/>
<path d="M77.4316 49.9803C76.9617 50.5802 76.6666 51.3367 76.6666 52.1715C76.6666 54.0896 78.1633 55.6497 80 55.6497C81.8367 55.6497 83.3334 54.0898 83.3334 52.1715C83.3334 50.4498 82.125 49.0273 80.5518 48.7508L73.0301 27.8245H84.9283C86.9232 27.8245 88.0834 26.1602 88.3016 24.6872L89.9666 15.9918C90.0648 15.4805 89.9383 14.9502 89.6217 14.5483C89.3051 14.1448 88.8334 13.9118 88.3334 13.9118H73.3334C72.4117 13.9118 71.6668 14.6891 71.6668 15.6508C71.6668 16.6107 72.4117 17.3898 73.3334 17.3898H86.3L85.0268 24.0436C85.0018 24.1636 84.9301 24.3324 84.9285 24.3462H71.7803L66.5619 9.82325C66.5586 9.81632 66.5535 9.81286 66.552 9.80593C66.5486 9.799 66.5502 9.79207 66.5486 9.78677L63.2152 1.09136C62.8736 0.199134 61.8953 -0.228637 61.0486 0.122709C60.1936 0.479151 59.777 1.49141 60.1186 2.38343L63.1553 10.2979L56.8869 21.7444C56.4285 22.5775 56.7068 23.6399 57.5068 24.1166C57.7668 24.2712 58.0518 24.346 58.3318 24.346C58.9119 24.346 59.4734 24.0314 59.7801 23.4695L64.6867 14.5116L68.6967 25.6711L55.9949 40.5801C55.3816 41.2983 55.4449 42.3974 56.1332 43.0357C56.4498 43.3314 56.8449 43.4757 57.2398 43.4757C57.6982 43.4757 58.1564 43.2774 58.4848 42.8914L70.0197 29.3527L77.4316 49.9803Z" fill="#D4C17F"/>
<path d="M98.3334 76.522H71.6666C70.7449 76.522 70 77.3011 70 78.261C70 79.2209 70.7449 80 71.6666 80H98.3332C99.2549 80 99.9998 79.2209 99.9998 78.261C100 77.3011 99.2551 76.522 98.3334 76.522Z" fill="#D4C17F"/>
<path d="M65 76.522H61.6666C60.7449 76.522 60 77.3011 60 78.261C60 79.2209 60.7449 80 61.6666 80H65C65.9217 80 66.6666 79.2209 66.6666 78.261C66.6666 77.3011 65.9217 76.522 65 76.522Z" fill="#D4C17F"/>
</svg>
