<svg width="80" height="80" viewBox="0 0 80 80" fill="none" xmlns="http://www.w3.org/2000/svg">
<path d="M53.3894 4.59554C53.572 4.59554 53.7561 4.5582 53.9334 4.4782C54.3147 4.30757 54.7014 4.14616 55.0934 3.9982C55.7828 3.73554 56.1294 2.96617 55.8667 2.2782C55.6053 1.58883 54.8347 1.24758 54.1479 1.50351C53.7065 1.67148 53.2706 1.85289 52.8426 2.04492C52.1706 2.34632 51.8694 3.13554 52.172 3.80757C52.3934 4.3021 52.8787 4.59554 53.3894 4.59554Z" fill="#D4C17F"/>
<path d="M53.3334 33.5114C54.0708 33.5114 54.6667 32.9155 54.6667 32.1781V31.9475C54.6667 31.5969 54.6894 31.2528 54.7334 30.9142C54.8294 30.1836 54.3147 29.5142 53.5867 29.4183C52.8347 29.3224 52.1867 29.8369 52.0894 30.5663C52.0308 31.0169 52 31.4822 52 31.9477V32.1783C52.0001 32.9155 52.5961 33.5114 53.3334 33.5114Z" fill="#D4C17F"/>
<path d="M46.6667 33.8408C47.4041 33.8408 48 33.2434 48 32.5075V31.1528C48 30.4169 47.4041 29.8195 46.6667 29.8195C45.9294 29.8195 45.3334 30.4169 45.3334 31.1528V32.5075C45.3334 33.2434 45.9294 33.8408 46.6667 33.8408Z" fill="#D4C17F"/>
<path d="M54.3228 12.7514C53.8934 12.9874 53.4734 13.2421 53.0695 13.5129C52.4575 13.9222 52.2922 14.7514 52.7016 15.3635C52.9589 15.7475 53.3815 15.9541 53.8109 15.9541C54.0669 15.9541 54.3242 15.8821 54.5509 15.7288C54.8936 15.5008 55.2468 15.2861 55.6095 15.0861C56.2536 14.7314 56.4895 13.9194 56.1348 13.2755C55.7787 12.6302 54.9693 12.3982 54.3228 12.7514Z" fill="#D4C17F"/>
<path d="M35.4108 12.6155C35.6628 13.0182 36.0961 13.2396 36.5402 13.2396C36.7828 13.2396 37.0281 13.1743 37.2469 13.0355C37.871 12.6435 38.0602 11.8208 37.6683 11.1982C37.4163 10.7968 37.155 10.4049 36.8803 10.0208C36.4524 9.42225 35.6217 9.28225 35.0203 9.71288C34.4203 10.1423 34.283 10.9743 34.711 11.5729C34.9547 11.9129 35.1881 12.2608 35.4108 12.6155Z" fill="#D4C17F"/>
<path d="M59.7881 2.79554C59.8428 2.79554 59.9001 2.79148 59.9561 2.78491C60.3681 2.73288 60.7854 2.69288 61.2067 2.66351C61.9426 2.61413 62.4973 1.97945 62.4493 1.24492C62.4014 0.51023 61.7561 -0.0457064 61.0307 0.00351226C60.5561 0.0341372 60.0867 0.0808559 59.6228 0.13945C58.8922 0.231481 58.3734 0.898042 58.4668 1.62882C58.5508 2.3021 59.1254 2.79554 59.7881 2.79554Z" fill="#D4C17F"/>
<path d="M54.844 24.6955C54.344 25.2355 54.3747 26.0795 54.9134 26.5795C55.1722 26.8181 55.4961 26.9355 55.8214 26.9355C56.18 26.9355 56.5361 26.7928 56.8 26.5088C57.0773 26.2102 57.3826 25.9274 57.7079 25.6688C58.2853 25.2102 58.3812 24.3714 57.9226 23.7955C57.4653 23.2196 56.6253 23.1208 56.0494 23.5808C55.6187 23.9221 55.2134 24.2981 54.844 24.6955Z" fill="#D4C17F"/>
<path d="M42.752 13.0355C42.972 13.1741 43.2174 13.2396 43.46 13.2396C43.9041 13.2396 44.3373 13.0182 44.5894 12.6155C44.812 12.2608 45.0453 11.9129 45.2894 11.5729C45.7173 10.9743 45.58 10.1423 44.98 9.71288C44.3786 9.28225 43.548 9.42225 43.12 10.0208C42.8453 10.4049 42.5827 10.7968 42.332 11.1982C41.9402 11.8208 42.1294 12.6435 42.752 13.0355Z" fill="#D4C17F"/>
<path d="M53.3334 39.9475C54.0708 39.9475 54.6667 39.3502 54.6667 38.6142V37.9475C54.6667 37.2116 54.0708 36.6142 53.3334 36.6142C52.5961 36.6142 52.0001 37.2116 52.0001 37.9475V38.6142C52.0001 39.3502 52.5961 39.9475 53.3334 39.9475Z" fill="#D4C17F"/>
<path d="M46.6388 27.0647C46.7002 27.0741 46.7602 27.078 46.8202 27.078C47.4761 27.078 48.0495 26.5927 48.1414 25.9233C48.1961 25.5127 48.2694 25.1074 48.36 24.7074C48.5241 23.9888 48.0733 23.2753 47.3547 23.1127C46.6361 22.95 45.9214 23.3994 45.7588 24.118C45.652 24.5939 45.5641 25.0766 45.4974 25.5647C45.3988 26.2941 45.9108 26.9661 46.6388 27.0647Z" fill="#D4C17F"/>
<path d="M37.5614 17.1528C37.6947 17.5475 37.8147 17.9461 37.9255 18.3514C38.0869 18.9447 38.6255 19.3355 39.2108 19.3355C39.3267 19.3355 39.4441 19.3196 39.5614 19.2875C39.7267 19.2435 39.8708 19.1635 40 19.0689C40.1294 19.1636 40.2733 19.2436 40.4386 19.2875C40.5559 19.3196 40.6733 19.3355 40.7892 19.3355C41.3745 19.3355 41.9133 18.9449 42.0745 18.3514C42.1852 17.9461 42.3039 17.5474 42.4386 17.1528C42.6772 16.4555 42.3027 15.6982 41.6066 15.4608C40.9666 15.2422 40.2919 15.5555 39.9999 16.1475C39.7078 15.5555 39.0331 15.2422 38.3931 15.4608C37.6961 15.6982 37.3228 16.4555 37.5614 17.1528Z" fill="#D4C17F"/>
<path d="M47.7855 8.18208C48.0961 8.18208 48.4081 8.07411 48.6602 7.85536C48.9761 7.58067 49.3002 7.31396 49.6308 7.05943C50.2148 6.61005 50.3228 5.77411 49.8748 5.19005C49.4255 4.60599 48.5881 4.49537 48.0055 4.94599C47.6308 5.23396 47.2655 5.53271 46.9108 5.84333C46.3548 6.32599 46.2961 7.16864 46.7802 7.72474C47.0428 8.02755 47.4134 8.18208 47.7855 8.18208Z" fill="#D4C17F"/>
<path d="M48.8214 17.5155C48.5281 17.9049 48.2508 18.3075 47.9908 18.7208C47.5975 19.3435 47.7855 20.1675 48.4081 20.5608C48.6295 20.6981 48.8734 20.7649 49.1175 20.7649C49.5602 20.7649 49.9934 20.5449 50.2469 20.1422C50.4683 19.7916 50.7028 19.4502 50.9522 19.1208C51.3948 18.5328 51.2775 17.6967 50.6895 17.2528C50.1002 16.8088 49.2641 16.9302 48.8214 17.5155Z" fill="#D4C17F"/>
<path d="M61.3028 10.6675C60.8095 10.7049 60.3242 10.7635 59.8454 10.8422C59.1187 10.9622 58.6268 11.649 58.7468 12.3755C58.8536 13.0288 59.4175 13.4914 60.0601 13.4914C60.1322 13.4914 60.2042 13.4861 60.2775 13.4741C60.6842 13.4074 61.0934 13.3582 61.5081 13.3261C62.2428 13.2688 62.7921 12.6275 62.7348 11.8929C62.6773 11.1594 62.052 10.6049 61.3028 10.6675Z" fill="#D4C17F"/>
<path d="M66.236 2.89414C66.6507 2.96085 67.064 3.03945 67.472 3.12882C67.5693 3.15023 67.664 3.15945 67.7587 3.15945C68.372 3.15945 68.9228 2.73539 69.0601 2.11273C69.2174 1.39273 68.7628 0.682109 68.0428 0.524765C67.5842 0.423515 67.1228 0.336797 66.6548 0.262109C65.9281 0.14211 65.2454 0.642109 65.1295 1.36883C65.0134 2.09554 65.5081 2.77945 66.236 2.89414Z" fill="#D4C17F"/>
<path d="M68.5173 11.6261C68.0573 11.4621 67.5893 11.3155 67.1159 11.1902C66.4079 11.0061 65.6759 11.4261 65.4853 12.1382C65.2973 12.8502 65.7212 13.5794 66.4332 13.7688C66.8346 13.8741 67.2292 13.9968 67.6159 14.1368C67.7653 14.19 67.9159 14.2154 68.0665 14.2154C68.6132 14.2154 69.1265 13.8754 69.3212 13.3313C69.5707 12.6382 69.2093 11.8741 68.5173 11.6261Z" fill="#D4C17F"/>
<path d="M62.124 21.2941C61.3881 21.3314 60.8214 21.9568 60.8587 22.6914C60.8947 23.4274 61.472 23.9874 62.2561 23.9568C62.6654 23.9368 63.0881 23.9488 63.4934 23.99C63.5401 23.9953 63.5867 23.9968 63.6321 23.9968C64.3081 23.9968 64.8854 23.4861 64.9574 22.8008C65.0321 22.0675 64.4989 21.4128 63.7668 21.3368C63.2267 21.2821 62.6681 21.2649 62.124 21.2941Z" fill="#D4C17F"/>
<path d="M77.6813 8.84614C77.944 9.13411 78.3054 9.28083 78.6667 9.28083C78.9881 9.28083 79.3093 9.16614 79.5653 8.93286C80.1093 8.43693 80.1479 7.59286 79.652 7.0488C79.492 6.87412 79.3293 6.70209 79.1653 6.53412C78.6479 6.0074 77.8053 6.00084 77.2799 6.51537C76.752 7.03005 76.7452 7.87396 77.2585 8.40068C77.4027 8.54614 77.544 8.69552 77.6813 8.84614Z" fill="#D4C17F"/>
<path d="M57.3334 50.614H41.3334C40.5961 50.614 40.0002 51.2114 40.0002 51.9473C40.0002 52.6832 40.5961 53.2806 41.3334 53.2806H57.3334C61.072 53.2806 64.0001 50.3526 64.0001 46.6139V43.9472C64.0001 43.2112 63.4042 42.6139 62.6668 42.6139H17.3335C16.5961 42.6139 16.0002 43.2112 16.0002 43.9472V46.6139C16.0002 50.3525 18.9282 53.2806 22.6669 53.2806H34.6669V59.9473C34.6669 60.6832 35.2628 61.2806 36.0002 61.2806C36.7375 61.2806 37.3335 60.6832 37.3335 59.9473V51.9473C37.3335 51.2114 36.7375 50.614 36.0002 50.614H22.6669C20.4229 50.614 18.6669 48.8567 18.6669 46.614V45.2808H61.3336V46.614C61.3334 48.8567 59.5773 50.614 57.3334 50.614Z" fill="#D4C17F"/>
<path d="M70.6467 31.3755C70.6599 31.5635 70.6667 31.7555 70.6667 31.9475C70.6667 32.6834 71.2626 33.2808 71.9999 33.2808C72.7373 33.2808 73.3332 32.6834 73.3332 31.9475C73.3332 31.6916 73.3239 31.4381 73.3053 31.1861C73.2532 30.4528 72.6293 29.8981 71.8812 29.9502C71.1467 30.0035 70.5946 30.6408 70.6467 31.3755Z" fill="#D4C17F"/>
<path d="M67.8307 24.0567C67.344 24.61 67.3975 25.4514 67.9493 25.9394C68.2587 26.2114 68.5479 26.5088 68.8093 26.8235C69.0746 27.1408 69.4534 27.3035 69.8361 27.3035C70.1361 27.3035 70.4387 27.2022 70.6881 26.9955C71.2534 26.5235 71.3308 25.6835 70.8587 25.1169C70.5107 24.6981 70.124 24.301 69.712 23.9381C69.1614 23.4528 68.3187 23.5035 67.8307 24.0567Z" fill="#D4C17F"/>
<path d="M41.3334 30.5394C41.3334 29.8035 40.7375 29.2061 40.0002 29.2061C39.2628 29.2061 38.6669 29.8035 38.6669 30.5394V32.022C38.6669 32.758 39.2628 33.3553 40.0002 33.3553C40.7375 33.3553 41.3334 32.758 41.3334 32.022V30.5394Z" fill="#D4C17F"/>
<path d="M40.0002 36.6141C39.2628 36.6141 38.6669 37.2114 38.6669 37.9473V38.6141C38.6669 39.35 39.2628 39.9473 40.0002 39.9473C40.7375 39.9473 41.3334 39.35 41.3334 38.6141V37.9473C41.3334 37.2114 40.7373 36.6141 40.0002 36.6141Z" fill="#D4C17F"/>
<path d="M45.3334 38.6141C45.3334 39.35 45.9294 39.9473 46.6667 39.9473C47.4041 39.9473 48 39.35 48 38.6141V37.9473C48 37.2114 47.4041 36.6141 46.6667 36.6141C45.9294 36.6141 45.3334 37.2114 45.3334 37.9473V38.6141Z" fill="#D4C17F"/>
<path d="M41.3334 23.9475C41.3334 23.7369 41.3361 23.5289 41.3428 23.3196C41.3587 22.7502 41.0108 22.261 40.5122 22.0569C40.4616 22.0342 40.4042 22.0342 40.3508 22.0183C40.2508 21.9916 40.1561 21.9516 40.0481 21.9489C40.0348 21.9475 40.0228 21.9475 40.0081 21.9475C40.0055 21.9475 40.0028 21.9489 40.0002 21.9489C39.9975 21.9489 39.9948 21.9475 39.9922 21.9475C39.9775 21.9475 39.9655 21.9475 39.9522 21.9489C39.8442 21.9516 39.7481 21.9916 39.6495 22.0183C39.5963 22.0342 39.5375 22.0342 39.4881 22.0569C38.9895 22.261 38.6414 22.7502 38.6575 23.3196C38.6642 23.5289 38.6669 23.7369 38.6669 23.9475V24.6142C38.6669 25.3502 39.2628 25.9475 40.0002 25.9475C40.7375 25.9475 41.3334 25.3502 41.3334 24.6142V23.9475Z" fill="#D4C17F"/>
<path d="M32.0002 38.6141C32.0002 39.35 32.5961 39.9473 33.3335 39.9473C34.0708 39.9473 34.6667 39.35 34.6667 38.6141V37.9473C34.6667 37.2114 34.0708 36.6141 33.3335 36.6141C32.5961 36.6141 32.0002 37.2114 32.0002 37.9473V38.6141Z" fill="#D4C17F"/>
<path d="M33.3335 33.8408C34.0708 33.8408 34.6667 33.2434 34.6667 32.5075V31.1528C34.6667 30.4169 34.0708 29.8195 33.3335 29.8195C32.5961 29.8195 32.0002 30.4169 32.0002 31.1528V32.5075C32.0002 33.2434 32.5961 33.8408 33.3335 33.8408Z" fill="#D4C17F"/>
<path d="M28.0002 38.6141V37.9473C28.0002 37.2114 27.4042 36.6141 26.6669 36.6141C25.9296 36.6141 25.3336 37.2114 25.3336 37.9473V38.6141C25.3336 39.35 25.9296 39.9473 26.6669 39.9473C27.4042 39.9473 28.0002 39.3501 28.0002 38.6141Z" fill="#D4C17F"/>
<path d="M9.3121 26.9955C9.56147 27.2022 9.86272 27.3035 10.1641 27.3035C10.5468 27.3035 10.9255 27.1408 11.1908 26.8235C11.4523 26.5088 11.7415 26.2114 12.0508 25.9394C12.6029 25.4514 12.6562 24.61 12.1694 24.0567C11.6841 23.5035 10.8415 23.45 10.288 23.938C9.876 24.3006 9.48929 24.698 9.14007 25.1167C8.66944 25.6835 8.74679 26.5235 9.3121 26.9955Z" fill="#D4C17F"/>
<path d="M73.3334 63.9475H45.3334V57.2807C45.3334 56.5448 44.7375 55.9475 44.0002 55.9475C43.2628 55.9475 42.6669 56.5448 42.6669 57.2807V65.2807C42.6669 66.0167 43.2628 66.614 44.0002 66.614H72.0001V73.2807C72.0001 75.486 70.2054 77.2807 68.0001 77.2807H12.0002C9.79491 77.2807 8.00023 75.486 8.00023 73.2807V66.614H38.7775C39.5148 66.614 40.1108 66.0167 40.1108 65.2807C40.1108 64.5448 39.5148 63.9475 38.7775 63.9475H6.66679C5.92945 63.9475 5.33351 64.5448 5.33351 65.2807V73.2807C5.33351 76.9566 8.32413 79.9474 12.0002 79.9474H68.0001C71.676 79.9474 74.6668 76.9568 74.6668 73.2807V65.2807C74.6667 64.5448 74.0707 63.9475 73.3334 63.9475Z" fill="#D4C17F"/>
<path d="M32.0002 70.614V73.2807C32.0002 74.0167 32.5961 74.614 33.3335 74.614C34.0708 74.614 34.6667 74.0167 34.6667 73.2807V70.614C34.6667 69.8781 34.0708 69.2807 33.3335 69.2807C32.5961 69.2807 32.0002 69.8781 32.0002 70.614Z" fill="#D4C17F"/>
<path d="M1.39352 25.9488C1.37759 25.9474 1.36149 25.9474 1.34555 25.9474C0.632274 25.9474 0.0388378 26.5141 0.0149316 27.2341C0.00555663 27.4714 0.000244141 27.7088 0.000244141 27.9474C0.000244141 28.6833 0.596181 29.2806 1.33352 29.2806C2.07087 29.2806 2.6668 28.6833 2.6668 27.9474C2.6668 27.7394 2.67211 27.5341 2.67883 27.3274C2.70415 26.5914 2.12946 25.9741 1.39352 25.9488Z" fill="#D4C17F"/>
<path d="M7.15351 17.3875C7.4521 17.0996 7.76288 16.8249 8.08288 16.5635C8.65351 16.0968 8.73882 15.2568 8.27226 14.6876C7.80695 14.1182 6.96695 14.0302 6.39632 14.4982C6.01898 14.8076 5.65226 15.1315 5.30304 15.4702C4.77242 15.9808 4.75773 16.8249 5.26836 17.3555C5.52976 17.6261 5.87898 17.7622 6.22835 17.7622C6.56148 17.7621 6.89617 17.6382 7.15351 17.3875Z" fill="#D4C17F"/>
<path d="M3.62821 19.5768C2.97086 19.2488 2.1668 19.5127 1.83883 20.1714C1.62024 20.6061 1.41743 21.0528 1.23618 21.5074C0.962899 22.1927 1.29618 22.9674 1.97883 23.2406C2.14149 23.306 2.30821 23.3366 2.47352 23.3366C3.00289 23.3366 3.50414 23.0192 3.71211 22.498C3.86539 22.1127 4.03617 21.7353 4.22149 21.366C4.55211 20.7075 4.2868 19.9075 3.62821 19.5768Z" fill="#D4C17F"/>
<path d="M6.02945 5.53677C6.25476 5.53677 6.48414 5.47943 6.69351 5.35943C7.05492 5.15146 7.42148 4.95537 7.79617 4.77271C8.45617 4.4474 8.7282 3.6474 8.40414 2.9874C8.07882 2.326 7.27742 2.05537 6.61883 2.37943C6.19211 2.58881 5.77352 2.81146 5.36289 3.0474C4.72555 3.41537 4.50555 4.23005 4.87352 4.8688C5.12024 5.29677 5.56945 5.53677 6.02945 5.53677Z" fill="#D4C17F"/>
<path d="M18.6668 70.614V73.2807C18.6668 74.0167 19.2627 74.614 20 74.614C20.7374 74.614 21.3333 74.0167 21.3333 73.2807V70.614C21.3333 69.8781 20.7374 69.2807 20 69.2807C19.2627 69.2807 18.6668 69.8781 18.6668 70.614Z" fill="#D4C17F"/>
<path d="M78.0213 23.2408C78.704 22.9675 79.0373 22.1928 78.764 21.5075C78.5826 21.0528 78.3799 20.6061 78.1613 20.1716C77.832 19.513 77.0307 19.2502 76.372 19.5769C75.7134 19.9075 75.4479 20.7075 75.7787 21.3663C75.964 21.7356 76.1346 22.113 76.2881 22.4983C76.496 23.0197 76.9974 23.3369 77.5254 23.3369C77.692 23.3367 77.8587 23.3061 78.0213 23.2408Z" fill="#D4C17F"/>
<path d="M79.9854 27.2341C79.9613 26.4967 79.308 25.9061 78.6068 25.9488C77.8709 25.9741 77.2962 26.5914 77.3215 27.3274C77.3282 27.5341 77.3335 27.7394 77.3335 27.9474C77.3335 28.6833 77.9294 29.2806 78.6668 29.2806C79.4041 29.2806 80.0001 28.6833 80.0001 27.9474C80.0001 27.7088 79.9946 27.4714 79.9854 27.2341Z" fill="#D4C17F"/>
<path d="M74.636 3.04757C74.2266 2.81163 73.808 2.58898 73.3813 2.3796C72.7254 2.05695 71.9213 2.32757 71.596 2.98757C71.272 3.64757 71.544 4.44757 72.204 4.77288C72.5787 4.95553 72.9454 5.15163 73.3054 5.3596C73.516 5.4796 73.7454 5.53694 73.9695 5.53694C74.4309 5.53694 74.8801 5.29694 75.1268 4.86897C75.4946 4.23022 75.2746 3.41554 74.636 3.04757Z" fill="#D4C17F"/>
<path d="M61.3334 73.2807V70.614C61.3334 69.8781 60.7375 69.2807 60.0001 69.2807C59.2628 69.2807 58.6668 69.8781 58.6668 70.614V73.2807C58.6668 74.0167 59.2628 74.614 60.0001 74.614C60.7375 74.614 61.3334 74.0167 61.3334 73.2807Z" fill="#D4C17F"/>
<path d="M48.0001 73.2807V70.614C48.0001 69.8781 47.4042 69.2807 46.6669 69.2807C45.9295 69.2807 45.3336 69.8781 45.3336 70.614V73.2807C45.3336 74.0167 45.9295 74.614 46.6669 74.614C47.4041 74.614 48.0001 74.0167 48.0001 73.2807Z" fill="#D4C17F"/>
<path d="M73.604 14.4982C73.032 14.0302 72.192 14.1182 71.7281 14.6876C71.2613 15.2569 71.3467 16.0969 71.916 16.5635C72.2374 16.8249 72.5481 17.0994 72.8467 17.3875C73.104 17.6382 73.4387 17.7622 73.772 17.7622C74.1213 17.7622 74.4693 17.6263 74.732 17.3555C75.2426 16.8249 75.2279 15.9808 74.6973 15.4702C74.3481 15.1315 73.9813 14.8076 73.604 14.4982Z" fill="#D4C17F"/>
<path d="M8.11882 29.9502C7.35742 29.8996 6.74679 30.4528 6.69351 31.1861C6.67617 31.4381 6.66679 31.6914 6.66679 31.9475C6.66679 32.6834 7.26273 33.2808 8.00007 33.2808C8.73742 33.2808 9.33335 32.6834 9.33335 31.9475C9.33335 31.7555 9.34007 31.5634 9.35335 31.3755C9.40554 30.6408 8.85351 30.0035 8.11882 29.9502Z" fill="#D4C17F"/>
<path d="M26.4135 29.4181C25.6855 29.5141 25.1708 30.1834 25.2668 30.9141C25.3108 31.2527 25.3335 31.5967 25.3335 31.9474V32.178C25.3335 32.9153 25.9294 33.5113 26.6668 33.5113C27.4041 33.5113 28 32.9153 28 32.178V31.9474C28 31.482 27.9707 31.0167 27.9107 30.5659C27.8135 29.8367 27.1574 29.3208 26.4135 29.4181Z" fill="#D4C17F"/>
<path d="M24.9068 3.9982C25.2988 4.14616 25.6853 4.30757 26.0668 4.4782C26.2441 4.5582 26.4282 4.59554 26.6108 4.59554C27.1202 4.59554 27.6068 4.30226 27.8282 3.80757C28.1308 3.13554 27.8296 2.34617 27.1575 2.04492C26.7296 1.85289 26.2935 1.67164 25.8522 1.50351C25.1682 1.24758 24.3949 1.58883 24.1336 2.2782C23.8708 2.96617 24.2174 3.73554 24.9068 3.9982Z" fill="#D4C17F"/>
<path d="M24.3908 15.0861C24.7522 15.2861 25.1067 15.5008 25.4494 15.7288C25.6774 15.8821 25.9335 15.9541 26.1894 15.9541C26.6188 15.9541 27.0414 15.7474 27.2988 15.3635C27.7081 14.7514 27.5428 13.9222 26.9308 13.5129C26.5255 13.2422 26.1067 12.9875 25.6775 12.7514C25.0308 12.3982 24.2216 12.6302 23.8655 13.2755C23.5108 13.9194 23.7468 14.7314 24.3908 15.0861Z" fill="#D4C17F"/>
<path d="M1.33352 9.28084C1.69493 9.28084 2.05618 9.13412 2.31883 8.84615C2.45617 8.69553 2.59758 8.54615 2.74149 8.40084C3.25477 7.87412 3.2468 7.03022 2.72008 6.51553C2.19602 6.00085 1.35336 6.01022 0.834772 6.53428C0.67071 6.70225 0.508054 6.87428 0.348055 7.04897C-0.147882 7.59303 -0.109288 8.43694 0.434773 8.93303C0.690866 9.16615 1.01212 9.28084 1.33352 9.28084Z" fill="#D4C17F"/>
<path d="M22.2921 25.6688C22.6174 25.9274 22.9227 26.2102 23.2001 26.5088C23.4641 26.7928 23.8201 26.9355 24.1786 26.9355C24.5027 26.9355 24.828 26.8181 25.0866 26.5795C25.6254 26.0795 25.656 25.2355 25.156 24.6955C24.7866 24.2981 24.3813 23.9222 23.9507 23.5808C23.3707 23.1222 22.5333 23.2194 22.0774 23.7955C21.6188 24.3714 21.7147 25.2102 22.2921 25.6688Z" fill="#D4C17F"/>
<path d="M29.7535 20.1421C30.0067 20.5447 30.4402 20.7647 30.8828 20.7647C31.1269 20.7647 31.3708 20.698 31.5922 20.5607C32.2149 20.1674 32.4028 19.3433 32.0096 18.7207C31.7481 18.3074 31.4708 17.9047 31.1789 17.5153C30.7349 16.93 29.9003 16.8086 29.311 17.2527C28.723 17.6968 28.6056 18.5327 29.0483 19.1207C29.2974 19.4502 29.5321 19.7914 29.7535 20.1421Z" fill="#D4C17F"/>
<path d="M30.3694 7.05943C30.7 7.31411 31.0241 7.58083 31.34 7.85536C31.5921 8.07536 31.9041 8.18208 32.2147 8.18208C32.5867 8.18208 32.9574 8.02739 33.22 7.72474C33.7041 7.1688 33.6453 6.32615 33.0894 5.84333C32.7347 5.53271 32.3694 5.23396 31.9947 4.94599C31.4121 4.49537 30.5761 4.60599 30.1253 5.19005C29.6774 5.77411 29.7855 6.61021 30.3694 7.05943Z" fill="#D4C17F"/>
<path d="M12.2415 3.15945C12.3362 3.15945 12.4308 3.15008 12.5268 3.12883C12.9362 3.03945 13.3494 2.96086 13.7641 2.89414C14.4921 2.77946 14.9868 2.09555 14.8708 1.36883C14.7562 0.642116 14.0749 0.140866 13.3455 0.262116C12.8776 0.336804 12.4149 0.423522 11.9576 0.524772C11.2376 0.682115 10.7829 1.39274 10.9402 2.11274C11.0774 2.73555 11.6282 3.15945 12.2415 3.15945Z" fill="#D4C17F"/>
<path d="M18.7935 2.6635C19.2149 2.69288 19.6321 2.73288 20.0441 2.78491C20.1 2.79163 20.1574 2.79553 20.2121 2.79553C20.8747 2.79553 21.4494 2.30225 21.5333 1.62882C21.6266 0.898194 21.108 0.231477 20.3774 0.139446C19.9133 0.0808522 19.4441 0.0341335 18.9707 0.00350858C18.2521 -0.0497726 17.5986 0.510226 17.5507 1.24491C17.5029 1.97944 18.0574 2.61413 18.7935 2.6635Z" fill="#D4C17F"/>
<path d="M32.6455 23.1128C31.9269 23.2755 31.4761 23.9888 31.6388 24.7075C31.7308 25.1075 31.8028 25.5128 31.8588 25.9234C31.9508 26.5928 32.5228 27.0781 33.1802 27.0781C33.2402 27.0781 33.3002 27.0741 33.3602 27.0649C34.0895 26.9663 34.6016 26.2942 34.5028 25.5649C34.4361 25.0769 34.3481 24.5942 34.2414 24.1181C34.0788 23.4008 33.3602 22.9514 32.6455 23.1128Z" fill="#D4C17F"/>
<path d="M11.9335 14.2155C12.0829 14.2155 12.2349 14.1902 12.3841 14.1369C12.7708 13.9969 13.1655 13.8743 13.5668 13.7689C14.2788 13.5796 14.7027 12.8504 14.5148 12.1383C14.3254 11.4263 13.5948 11.0063 12.8841 11.1904C12.4108 11.3157 11.9427 11.4624 11.4827 11.6263C10.7907 11.8743 10.4294 12.6383 10.6787 13.3316C10.8735 13.8755 11.3868 14.2155 11.9335 14.2155Z" fill="#D4C17F"/>
<path d="M18.4921 13.3262C18.9068 13.3582 19.3161 13.4076 19.7227 13.4741C19.796 13.4862 19.868 13.4915 19.94 13.4915C20.5815 13.4915 21.1468 13.0288 21.2533 12.3755C21.3733 11.6488 20.8813 10.9623 20.1547 10.8423C19.6761 10.7637 19.1907 10.7049 18.6974 10.6676C17.9721 10.6035 17.3227 11.1582 17.2654 11.8929C17.2082 12.6276 17.7574 13.2688 18.4921 13.3262Z" fill="#D4C17F"/>
<path d="M16.3682 23.9967C16.4135 23.9967 16.4602 23.9953 16.5068 23.99C16.9121 23.9486 17.3347 23.9367 17.7441 23.9567C18.5108 23.9914 19.1055 23.4274 19.1415 22.6914C19.1788 21.9567 18.6121 21.3314 17.8761 21.2941C17.3308 21.2647 16.7721 21.2821 16.2335 21.3367C15.5015 21.4127 14.9682 22.0674 15.0429 22.8008C15.1148 23.4861 15.6921 23.9967 16.3682 23.9967Z" fill="#D4C17F"/>
</svg>
