<svg width="275" height="284" viewBox="0 0 275 284" fill="none" xmlns="http://www.w3.org/2000/svg">
<path opacity="0.02" d="M123.809 275.2C114.743 274.667 108.209 273.6 104.209 272C100.209 270.4 97.4094 267.333 95.8094 262.8C94.476 258.267 93.8094 250.933 93.8094 240.8V42.4C93.8094 32.2667 94.476 24.9333 95.8094 20.4C97.4094 15.8667 100.209 12.8 104.209 11.2C108.209 9.6 114.743 8.53333 123.809 8V0C109.409 0.8 89.276 1.2 63.4094 1.2C34.876 1.2 13.8094 0.8 0.209376 0V8C9.00938 8.53333 15.4094 9.6 19.4094 11.2C23.676 12.8 26.476 15.8667 27.8094 20.4C29.4094 24.9333 30.2094 32.2667 30.2094 42.4V240.8C30.2094 250.933 29.4094 258.267 27.8094 262.8C26.476 267.333 23.676 270.4 19.4094 272C15.4094 273.6 9.00938 274.667 0.209376 275.2V283.2C13.8094 282.4 34.876 282 63.4094 282C89.276 282 109.409 282.4 123.809 283.2V275.2ZM274.2 275.2C265.133 274.667 258.6 273.6 254.6 272C250.6 270.4 247.8 267.333 246.2 262.8C244.867 258.267 244.2 250.933 244.2 240.8V42.4C244.2 32.2667 244.867 24.9333 246.2 20.4C247.8 15.8667 250.6 12.8 254.6 11.2C258.6 9.6 265.133 8.53333 274.2 8V0C259.8 0.8 239.667 1.2 213.8 1.2C185.267 1.2 164.2 0.8 150.6 0V8C159.4 8.53333 165.8 9.6 169.8 11.2C174.067 12.8 176.867 15.8667 178.2 20.4C179.8 24.9333 180.6 32.2667 180.6 42.4V240.8C180.6 250.933 179.8 258.267 178.2 262.8C176.867 267.333 174.067 270.4 169.8 272C165.8 273.6 159.4 274.667 150.6 275.2V283.2C164.2 282.4 185.267 282 213.8 282C239.667 282 259.8 282.4 274.2 283.2V275.2Z" fill="white"/>
</svg>
