<svg width="425" height="284" viewBox="0 0 425 284" fill="none" xmlns="http://www.w3.org/2000/svg">
<path opacity="0.02" d="M123.614 8.79999C114.547 9.33332 108.014 10.4 104.014 12C100.014 13.6 97.2141 16.6667 95.6141 21.2C94.2807 25.7333 93.6141 33.0666 93.6141 43.2V241.6C93.6141 251.733 94.2807 259.067 95.6141 263.6C97.2141 268.133 100.014 271.2 104.014 272.8C108.014 274.4 114.547 275.467 123.614 276V284C109.214 283.2 89.0807 282.8 63.2141 282.8C34.6807 282.8 13.6141 283.2 0.0140632 284V276C8.81406 275.467 15.2141 274.4 19.2141 272.8C23.4807 271.2 26.2807 268.133 27.6141 263.6C29.2141 259.067 30.0141 251.733 30.0141 241.6V43.2C30.0141 33.0666 29.2141 25.7333 27.6141 21.2C26.2807 16.6667 23.4807 13.6 19.2141 12C15.2141 10.4 8.81406 9.33332 0.0140632 8.79999V0.799998C13.6141 1.59999 34.6807 1.99998 63.2141 1.99998C89.0807 1.99998 109.214 1.59999 123.614 0.799998V8.79999ZM274.005 8.79999C264.938 9.33332 258.405 10.4 254.405 12C250.405 13.6 247.605 16.6667 246.005 21.2C244.671 25.7333 244.005 33.0666 244.005 43.2V241.6C244.005 251.733 244.671 259.067 246.005 263.6C247.605 268.133 250.405 271.2 254.405 272.8C258.405 274.4 264.938 275.467 274.005 276V284C259.605 283.2 239.471 282.8 213.605 282.8C185.071 282.8 164.005 283.2 150.405 284V276C159.205 275.467 165.605 274.4 169.605 272.8C173.871 271.2 176.671 268.133 178.005 263.6C179.605 259.067 180.405 251.733 180.405 241.6V43.2C180.405 33.0666 179.605 25.7333 178.005 21.2C176.671 16.6667 173.871 13.6 169.605 12C165.605 10.4 159.205 9.33332 150.405 8.79999V0.799998C164.005 1.59999 185.071 1.99998 213.605 1.99998C239.471 1.99998 259.605 1.59999 274.005 0.799998V8.79999ZM424.395 8.79999C415.329 9.33332 408.795 10.4 404.795 12C400.795 13.6 397.995 16.6667 396.395 21.2C395.062 25.7333 394.395 33.0666 394.395 43.2V241.6C394.395 251.733 395.062 259.067 396.395 263.6C397.995 268.133 400.795 271.2 404.795 272.8C408.795 274.4 415.329 275.467 424.395 276V284C409.995 283.2 389.862 282.8 363.995 282.8C335.462 282.8 314.395 283.2 300.795 284V276C309.595 275.467 315.995 274.4 319.995 272.8C324.262 271.2 327.062 268.133 328.395 263.6C329.995 259.067 330.795 251.733 330.795 241.6V43.2C330.795 33.0666 329.995 25.7333 328.395 21.2C327.062 16.6667 324.262 13.6 319.995 12C315.995 10.4 309.595 9.33332 300.795 8.79999V0.799998C314.395 1.59999 335.462 1.99998 363.995 1.99998C389.862 1.99998 409.995 1.59999 424.395 0.799998V8.79999Z" fill="white"/>
</svg>
