<svg width="15" height="21" viewBox="0 0 15 21" fill="none" xmlns="http://www.w3.org/2000/svg">
<path d="M7.42241 4.6026C5.94244 4.6026 4.73782 5.80721 4.73782 7.28719C4.73782 8.76716 5.94244 9.97178 7.42241 9.97178C8.90239 9.97178 10.107 8.76716 10.107 7.28719C10.107 5.80721 8.90239 4.6026 7.42241 4.6026ZM7.42241 9.20475C6.36507 9.20475 5.50485 8.34453 5.50485 7.28719C5.50485 6.22984 6.36507 5.36963 7.42241 5.36963C8.47976 5.36963 9.33997 6.22984 9.33997 7.28719C9.33997 8.34453 8.47976 9.20475 7.42241 9.20475Z" fill="white"/>
<path d="M12.5552 2.15465C11.1661 0.765565 9.31914 0.000457764 7.35479 0.000457764C5.39006 0.000457764 3.54344 0.765565 2.15436 2.15465C-0.416323 4.72495 -0.735789 9.56104 1.4625 12.4911L7.35479 21.0005L13.2383 12.503C15.4454 9.56104 15.1259 4.72495 12.5552 2.15465ZM12.6162 12.0546L7.35479 19.6528L2.08495 12.0428C0.0910643 9.38424 0.376781 5.0168 2.69703 2.69693C3.94115 1.45282 5.59523 0.767483 7.35479 0.767483C9.11434 0.767483 10.7684 1.45282 12.0129 2.69693C14.3332 5.0168 14.6189 9.38424 12.6162 12.0546Z" fill="white"/>
</svg>
