<svg width="24" height="40" viewBox="0 0 24 40" fill="none" xmlns="http://www.w3.org/2000/svg">
<path d="M11.7657 0C5.27801 0 0 5.27802 0 11.7657V28.2343C0 34.722 5.27801 40 11.7657 40C18.2535 40 23.5315 34.722 23.5315 28.2343V11.7657C23.5315 5.27802 18.2535 0 11.7657 0ZM21.1316 28.2343C21.1316 33.3984 16.9299 37.6001 11.7657 37.6001C6.60156 37.6001 2.3999 33.3984 2.3999 28.2343V11.7657C2.3999 6.60156 6.60156 2.3999 11.7657 2.3999C16.9299 2.3999 21.1316 6.60156 21.1316 11.7657V28.2343Z" fill="#D4C17F"/>
<path d="M11.766 7.95715C11.1032 7.95715 10.5661 8.49426 10.5661 9.1571V14.6802C10.5661 15.3427 11.1032 15.8801 11.766 15.8801C12.4286 15.8801 12.966 15.3427 12.966 14.6802V9.1571C12.966 8.49426 12.4289 7.95715 11.766 7.95715Z" fill="#D4C17F"/>
</svg>
