<svg width="22" height="21" viewBox="0 0 22 21" fill="none" xmlns="http://www.w3.org/2000/svg">
<path d="M21.8404 17.2843C21.7737 16.7797 21.4823 16.3446 21.0413 16.0907L15.8605 13.1078C15.226 12.7424 14.421 12.8488 13.9031 13.3666L12.8826 14.3871C12.6111 14.6587 12.1815 14.6827 11.8835 14.4429C11.0791 13.7956 10.287 13.0832 9.52931 12.3255C8.77164 11.5678 8.05924 10.7758 7.41188 9.97129C7.17209 9.6733 7.19608 9.24374 7.46772 8.97215L8.48813 7.9517C9.00599 7.43388 9.11249 6.629 8.74706 5.99434L5.76416 0.813562C5.51017 0.372435 5.07512 0.0811618 4.5705 0.0143985C4.06583 -0.0525008 3.56996 0.115813 3.21001 0.475755L1.67242 2.0134C0.59926 3.0866 0.582025 5.04967 1.62389 7.5411C2.6257 9.93668 4.49525 12.5738 6.88807 14.9667C9.28099 17.3596 11.9181 19.2292 14.3138 20.231C15.5401 20.7438 16.6384 21.0001 17.5656 21C18.5221 21 19.2965 20.7273 19.8415 20.1824L21.3791 18.6448C21.739 18.2848 21.9071 17.7889 21.8404 17.2843ZM15.521 13.6973L20.7018 16.6802C20.958 16.8277 21.1272 17.0804 21.1659 17.3735C21.1985 17.6195 21.1346 17.8617 20.9897 18.0569L14.1045 14.1273L14.3842 13.8477C14.6849 13.547 15.1525 13.4852 15.521 13.6973ZM4.48124 0.68888C4.77437 0.727659 5.02705 0.896835 5.17454 1.15305L8.15744 6.33382C8.3697 6.70243 8.30784 7.16995 8.00708 7.47066L7.75024 7.72751L3.79914 0.865086C3.96065 0.745484 4.15382 0.680535 4.3552 0.680535C4.39697 0.680535 4.4391 0.683301 4.48124 0.68888ZM19.3603 19.7013C18.5077 20.5539 16.764 20.5182 14.5762 19.6033C12.2604 18.6348 9.70093 16.8173 7.36921 14.4857C5.03748 12.1539 3.21999 9.59443 2.25156 7.27863C1.3366 5.09081 1.30091 3.34707 2.1535 2.49444L3.29496 1.35293L7.25201 8.22574L6.98663 8.49111C6.4689 9.00889 6.42381 9.82856 6.88181 10.3979C7.54441 11.2213 8.27332 12.0317 9.04817 12.8066C9.82312 13.5815 10.6335 14.3104 11.457 14.973C12.0262 15.431 12.8458 15.386 13.3637 14.8681L13.6058 14.626L20.5006 18.561L19.3603 19.7013Z" fill="white"/>
</svg>
